ffmpeg started on 2016-11-26 at 13:11:42
Report written to "Output/NVENCh264/results/ffmpeg/old_town_cross_2160p50ll4000k.log"
Command line:
Tools/ffmpeg/ffmpeg -benchmark -y -i Input/y4m/old_town_cross_2160p50.y4m -c:v h264_nvenc -preset ll -b:v 4000k -an Output/NVENCh264/encoded/old_town_cross_2160p50ll4000k.mkv
ffmpeg version N-82227-gdb23fde Copyright (c) 2000-2016 the FFmpeg developers
  built with gcc 5.4.0 (Ubuntu 5.4.0-6ubuntu1~16.04.2) 20160609
  configuration: --prefix=/home/jaroslav/ffmpeg_build --pkg-config-flags=--static --extra-cflags=-I/home/jaroslav/ffmpeg_build/include --extra-ldflags=-L/home/jaroslav/ffmpeg_build/lib --bindir=/home/jaroslav/bin --enable-gpl --enable-libass --enable-libfdk-aac --enable-libfreetype --enable-libmp3lame --enable-libopus --enable-libtheora --enable-libvorbis --enable-libvpx --enable-libx264 --enable-libx265 --enable-nvenc --enable-libmfx --enable-libxvid --enable-libgsm --enable-libopencore-amrnb --enable-version3 --enable-nonfree
  libavutil      55. 35.100 / 55. 35.100
  libavcodec     57. 66.101 / 57. 66.101
  libavformat    57. 57.100 / 57. 57.100
  libavdevice    57.  2.100 / 57.  2.100
  libavfilter     6. 66.100 /  6. 66.100
  libswscale      4.  3.100 /  4.  3.100
  libswresample   2.  4.100 /  2.  4.100
  libpostproc    54.  2.100 / 54.  2.100
Input #0, yuv4mpegpipe, from 'Input/y4m/old_town_cross_2160p50.y4m':
  Duration: 00:00:10.00, start: 0.000000, bitrate: 4976642 kb/s
    Stream #0:0: Video: rawvideo (I420 / 0x30323449), yuv420p(progressive), 3840x2160, SAR 1:1 DAR 16:9, 50 fps, 50 tbr, 50 tbn, 50 tbc
[h264_nvenc @ 0x37a2120] The variable bitrate rate-control requires the 'qmin' and/or 'qmax' option set.
Output #0, matroska, to 'Output/NVENCh264/encoded/old_town_cross_2160p50ll4000k.mkv':
  Metadata:
    encoder         : Lavf57.57.100
    Stream #0:0: Video: h264 (h264_nvenc) (Main) (H264 / 0x34363248), yuv420p, 3840x2160 [SAR 1:1 DAR 16:9], q=-1--1, 4000 kb/s, 50 fps, 1k tbn, 50 tbc
    Metadata:
      encoder         : Lavc57.66.101 h264_nvenc
    Side data:
      cpb: bitrate max/min/avg: 0/0/4000000 buffer size: 8000000 vbv_delay: -1
Stream mapping:
  Stream #0:0 -> #0:0 (rawvideo (native) -> h264 (h264_nvenc))
Press [q] to stop, [?] for help
frame=   20 fps=0.0 q=0.0 size=       0kB time=00:00:00.00 bitrate=N/A speed=   0x    frame=   31 fps= 27 q=41.0 size=       1kB time=00:00:00.00 bitrate=5976.0kbits/s speed=0.000856x    frame=   49 fps= 29 q=39.0 size=       1kB time=00:00:00.36 bitrate=  16.6kbits/s speed=0.215x    frame=   65 fps= 28 q=39.0 size=       1kB time=00:00:00.68 bitrate=   8.8kbits/s speed=0.293x    frame=   78 fps= 28 q=39.0 size=       1kB time=00:00:00.94 bitrate=   6.4kbits/s speed=0.333x    frame=   94 fps= 26 q=38.0 size=       1kB time=00:00:01.26 bitrate=   4.7kbits/s speed=0.353x    frame=   98 fps= 24 q=39.0 size=       1kB time=00:00:01.34 bitrate=   4.5kbits/s speed=0.329x    frame=  116 fps= 25 q=36.0 size=       1kB time=00:00:01.70 bitrate=   3.5kbits/s speed=0.37x    frame=  134 fps= 26 q=36.0 size=       1kB time=00:00:02.06 bitrate=   2.9kbits/s speed=0.403x    frame=  152 fps= 27 q=36.0 size=       1kB time=00:00:02.42 bitrate=   2.5kbits/s speed=0.43x    frame=  170 fps= 28 q=36.0 size=       1kB time=00:00:02.78 bitrate=   2.1kbits/s speed=0.453x    frame=  188 fps= 28 q=36.0 size=       1kB time=00:00:03.14 bitrate=   1.9kbits/s speed=0.472x    frame=  206 fps= 29 q=36.0 size=       1kB time=00:00:03.50 bitrate=   1.7kbits/s speed=0.489x    frame=  224 fps= 29 q=36.0 size=       1kB time=00:00:03.86 bitrate=   1.5kbits/s speed=0.503x    frame=  242 fps= 29 q=36.0 size=       1kB time=00:00:04.22 bitrate=   1.4kbits/s speed=0.512x    frame=  260 fps= 30 q=35.0 size=       1kB time=00:00:04.58 bitrate=   1.3kbits/s speed=0.522x    frame=  272 fps= 29 q=36.0 size=       1kB time=00:00:04.82 bitrate=   1.2kbits/s speed=0.514x    frame=  287 fps= 29 q=35.0 size=    2349kB time=00:00:05.12 bitrate=3757.0kbits/s speed=0.518x    frame=  305 fps= 29 q=41.0 size=    2349kB time=00:00:05.48 bitrate=3510.2kbits/s speed=0.527x    frame=  312 fps= 29 q=41.0 size=    2349kB time=00:00:05.62 bitrate=3422.8kbits/s speed=0.514x    frame=  318 fps= 28 q=42.0 size=    2349kB time=00:00:05.74 bitrate=3351.3kbits/s speed=0.501x    frame=  320 fps= 26 q=41.0 size=    2349kB time=00:00:05.78 bitrate=3328.1kbits/s speed=0.478x    frame=  322 fps= 25 q=39.0 size=    2349kB time=00:00:05.82 bitrate=3305.2kbits/s speed=0.455x    frame=  325 fps= 24 q=41.0 size=    2349kB time=00:00:05.88 bitrate=3271.5kbits/s speed=0.442x    frame=  328 fps= 24 q=39.0 size=    2349kB time=00:00:05.94 bitrate=3238.4kbits/s speed=0.43x    frame=  334 fps= 23 q=38.0 size=    2349kB time=00:00:06.06 bitrate=3174.3kbits/s speed=0.423x    frame=  346 fps= 23 q=36.0 size=    2349kB time=00:00:06.30 bitrate=3053.4kbits/s speed=0.42x    frame=  364 fps= 23 q=36.0 size=    2349kB time=00:00:06.66 bitrate=2888.4kbits/s speed=0.42x    frame=  382 fps= 23 q=36.0 size=    2349kB time=00:00:07.02 bitrate=2740.3kbits/s speed=0.429x    frame=  387 fps= 22 q=36.0 size=    2349kB time=00:00:07.12 bitrate=2701.8kbits/s speed=0.414x    frame=  395 fps= 22 q=36.0 size=    2349kB time=00:00:07.28 bitrate=2642.4kbits/s speed=0.409x    frame=  412 fps= 22 q=36.0 size=    2349kB time=00:00:07.62 bitrate=2524.5kbits/s speed=0.409x    frame=  419 fps= 22 q=36.0 size=    2349kB time=00:00:07.76 bitrate=2479.0kbits/s speed=0.405x    frame=  423 fps= 21 q=36.0 size=    2349kB time=00:00:07.84 bitrate=2453.7kbits/s speed=0.395x    frame=  427 fps= 21 q=36.0 size=    2349kB time=00:00:07.92 bitrate=2428.9kbits/s speed=0.388x    frame=  432 fps= 21 q=36.0 size=    2349kB time=00:00:08.02 bitrate=2398.6kbits/s speed=0.383x    frame=  434 fps= 20 q=36.0 size=    2349kB time=00:00:08.06 bitrate=2386.7kbits/s speed=0.369x    frame=  436 fps= 19 q=36.0 size=    2349kB time=00:00:08.10 bitrate=2375.0kbits/s speed=0.361x    frame=  438 fps= 19 q=36.0 size=    2349kB time=00:00:08.14 bitrate=2363.3kbits/s speed=0.352x    frame=  441 fps= 18 q=36.0 size=    2349kB time=00:00:08.20 bitrate=2346.0kbits/s speed=0.343x    frame=  446 fps= 18 q=36.0 size=    2349kB time=00:00:08.30 bitrate=2317.7kbits/s speed=0.34x    frame=  452 fps= 18 q=36.0 size=    2349kB time=00:00:08.42 bitrate=2284.7kbits/s speed=0.337x    frame=  457 fps= 18 q=36.0 size=    2349kB time=00:00:08.52 bitrate=2257.9kbits/s speed=0.335x    frame=  475 fps= 18 q=36.0 size=    2349kB time=00:00:08.88 bitrate=2166.4kbits/s speed=0.342x    frame=  491 fps= 18 q=37.0 size=    2349kB time=00:00:09.20 bitrate=2091.0kbits/s speed=0.344x    frame=  496 fps= 18 q=36.0 size=    2349kB time=00:00:09.30 bitrate=2068.5kbits/s speed=0.34x    frame=  500 fps= 18 q=37.0 Lsize=    4792kB time=00:00:09.98 bitrate=3933.0kbits/s speed=0.36x    
video:4788kB audio:0kB subtitle:0kB other streams:0kB global headers:0kB muxing overhead: 0.088504%
bench: utime=1.264s
bench: maxrss=1408860kB
